<?xml version="1.0" encoding="UTF-8" standalone="no"?>
<!-- Created with Inkscape (http://www.inkscape.org/) -->

<svg
   xmlns:osb="http://www.openswatchbook.org/uri/2009/osb"
   xmlns:dc="http://purl.org/dc/elements/1.1/"
   xmlns:cc="http://creativecommons.org/ns#"
   xmlns:rdf="http://www.w3.org/1999/02/22-rdf-syntax-ns#"
   xmlns:svg="http://www.w3.org/2000/svg"
   xmlns="http://www.w3.org/2000/svg"
   xmlns:sodipodi="http://sodipodi.sourceforge.net/DTD/sodipodi-0.dtd"
   xmlns:inkscape="http://www.inkscape.org/namespaces/inkscape"
   width="210mm"
   height="210mm"
   viewBox="0 0 210 210"
   version="1.1"
   id="svg8"
   inkscape:version="0.92.4 (5da689c313, 2019-01-14)"
   sodipodi:docname="ck.svg"
   inkscape:export-filename="D:\CCKevin\Pictures\ck.png"
   inkscape:export-xdpi="96"
   inkscape:export-ydpi="96">
  <defs
     id="defs2">
    <linearGradient
       id="linearGradient6165"
       osb:paint="solid">
      <stop
         style="stop-color:#000000;stop-opacity:1;"
         offset="0"
         id="stop6163" />
    </linearGradient>
    <filter
       inkscape:collect="always"
       style="color-interpolation-filters:sRGB"
       id="filter6189"
       x="-0.035999998"
       width="1.072"
       y="-0.035999998"
       height="1.072">
      <feGaussianBlur
         inkscape:collect="always"
         stdDeviation="1.9220089"
         id="feGaussianBlur6191" />
    </filter>
    <filter
       inkscape:collect="always"
       style="color-interpolation-filters:sRGB"
       id="filter6189-6"
       x="-0.035999998"
       width="1.072"
       y="-0.035999998"
       height="1.072">
      <feGaussianBlur
         inkscape:collect="always"
         stdDeviation="1.9220089"
         id="feGaussianBlur6191-5" />
    </filter>
    <filter
       inkscape:collect="always"
       style="color-interpolation-filters:sRGB"
       id="filter6282"
       x="-0.051900875"
       width="1.1038018"
       y="-0.044644512"
       height="1.0892889">
      <feGaussianBlur
         inkscape:collect="always"
         stdDeviation="4.5639454"
         id="feGaussianBlur6284" />
    </filter>
    <filter
       inkscape:collect="always"
       style="color-interpolation-filters:sRGB"
       id="filter6294"
       x="-0.024"
       width="1.048"
       y="-0.024"
       height="1.048">
      <feGaussianBlur
         inkscape:collect="always"
         stdDeviation="1.972449"
         id="feGaussianBlur6296" />
    </filter>
  </defs>
  <sodipodi:namedview
     id="base"
     pagecolor="#ffffff"
     bordercolor="#666666"
     borderopacity="1.0"
     inkscape:pageopacity="0.0"
     inkscape:pageshadow="2"
     inkscape:zoom="0.35"
     inkscape:cx="127.27878"
     inkscape:cy="367.56835"
     inkscape:document-units="mm"
     inkscape:current-layer="layer1"
     showgrid="false"
     height="298mm"
     inkscape:window-width="1360"
     inkscape:window-height="715"
     inkscape:window-x="-8"
     inkscape:window-y="22"
     inkscape:window-maximized="1" />
  <metadata
     id="metadata5">
    <rdf:RDF>
      <cc:Work
         rdf:about="">
        <dc:format>image/svg+xml</dc:format>
        <dc:type
           rdf:resource="http://purl.org/dc/dcmitype/StillImage" />
        <dc:title></dc:title>
      </cc:Work>
    </rdf:RDF>
  </metadata>
  <g
     inkscape:label="Capa 1"
     inkscape:groupmode="layer"
     id="layer1"
     transform="translate(0,-87)">
    <circle
       style="fill:#b3b3b3;fill-opacity:0.35175883;stroke:#190041;stroke-width:1.06500006;stroke-miterlimit:4;stroke-dasharray:none;stroke-opacity:1;filter:url(#filter6294)"
       id="path3727"
       cx="105.57146"
       cy="131.02562"
       r="67.938499"
       transform="matrix(1.4717981,0,0,1.4787953,-50.208088,-2.1361262)" />
    <flowRoot
       xml:space="preserve"
       id="flowRoot4550"
       style="font-style:normal;font-weight:normal;font-size:40px;line-height:1.25;font-family:sans-serif;letter-spacing:0px;word-spacing:0px;fill:#000000;fill-opacity:1;stroke:none"
       transform="scale(0.26458333)"><flowRegion
         id="flowRegion4552"><rect
           id="rect4554"
           width="68.690376"
           height="46.467018"
           x="385.87827"
           y="730.58051" /></flowRegion><flowPara
         id="flowPara4556"></flowPara></flowRoot>    <path
       style="fill:none;stroke:#000000;stroke-width:0.43934157px;stroke-linecap:butt;stroke-linejoin:miter;stroke-opacity:1"
       d="m 77.237202,166.7758 19.923665,16.90454 -3.541978,-21.79793 19.481051,-1.33458 -0.88554,25.80162 15.49638,-18.23908 11.5116,12.45596 -16.82463,17.34938 23.46592,8.45225 -6.64129,16.45968 -22.13768,-13.34569 3.9848,22.68766 -21.694894,-3.11399 0.885514,-22.68766 -15.053455,9.34199 -10.183211,-12.90082 17.709925,-8.45225 -24.793936,-10.23168 9.297759,-17.3494"
       id="path4666"
       inkscape:connector-curvature="0"
       sodipodi:nodetypes="ccccccccccccccccccc" />
    <path
       style="fill:#b3b3b3;stroke:#000000;stroke-width:0.43784997px;stroke-linecap:butt;stroke-linejoin:miter;stroke-opacity:1"
       d="M 100.19805,206.5188 97.098307,183.98855"
       id="path4668"
       inkscape:connector-curvature="0" />
    <path
       style="fill:#800080;fill-opacity:0.35175883;stroke-width:0.443802"
       d="m 110.69045,230.13086 c -5.35733,-0.79492 -9.9105,-1.45995 -10.11822,-1.47783 -0.2077,-0.0176 -0.23679,-5.28741 -0.0646,-11.71002 0.35282,-13.1632 0.14059,-15.35514 -4.032564,-41.63928 -1.101357,-6.93683 -1.877389,-12.73811 -1.724524,-12.89171 0.253269,-0.25447 12.921368,-1.30717 16.604088,-1.37976 l 1.54965,-0.0306 -0.33749,9.45353 c -0.18557,5.19942 -0.28519,11.03315 -0.22136,12.96381 l 0.11616,3.51031 7.78447,-9.13157 7.78448,-9.13155 3.50573,3.81209 c 1.92816,2.09665 4.37143,4.77689 5.42951,5.9561 l 1.92376,2.14399 -8.51828,8.66009 -8.51834,8.66009 1.2815,0.49982 c 0.70484,0.2749 5.94753,2.18322 11.65042,4.24068 5.70292,2.05747 10.44716,3.81945 10.54275,3.91548 0.19421,0.19511 -5.54722,14.54005 -6.02371,15.0502 -0.16665,0.17839 -5.14302,-2.59315 -11.0586,-6.15904 -5.91554,-3.56589 -10.87555,-6.36282 -11.02226,-6.21542 -0.14671,0.14747 0.58931,5.1799 1.63558,11.18333 1.04628,6.00341 1.82813,10.97093 1.73743,11.03889 -0.0907,0.068 -4.54816,-0.52677 -9.90547,-1.32169 z"
       id="path4679"
       inkscape:connector-curvature="0" />
    <path
       style="fill:#008000;fill-opacity:0.35175883;stroke-width:0.443802"
       d="m 80.376036,208.45612 -4.739872,-6.03352 1.889579,-0.82854 c 1.039265,-0.45568 5.077359,-2.3648 8.973542,-4.24254 5.049755,-2.43364 6.893263,-3.51939 6.419843,-3.781 -0.365261,-0.20184 -5.943885,-2.52538 -12.396949,-5.16338 -6.45308,-2.63804 -11.794233,-4.84037 -11.869217,-4.89411 -0.209541,-0.15013 8.486161,-16.20921 8.776991,-16.20921 0.140607,0 4.529958,3.62305 9.754111,8.05121 l 9.976803,8.32531 0.929998,9.58013 c 0.529027,5.44958 2.152435,12.36905 2.169255,13.10749 0.0287,1.25843 -1.112199,-0.31108 -7.275064,3.52743 -3.616414,2.25245 -7.42255,5.67737 -7.778391,5.81456 -0.44216,0.17049 -1.590973,-3.12995 -4.830629,-7.25383 z"
       id="path4681"
       inkscape:connector-curvature="0"
       sodipodi:nodetypes="cccscscsccscccc" />
    <circle
       style="fill:none;fill-opacity:1;stroke:#2b0070;stroke-width:0.26458332;stroke-opacity:1;filter:url(#filter6189)"
       id="path4687"
       cx="105.26637"
       cy="172.60747"
       r="36.80547"
       transform="matrix(1.6565704,0,0,1.6644463,-66.897121,-93.085107)" />
    <circle
       style="opacity:1;fill:none;fill-opacity:1;stroke:#311957;stroke-width:1.57365942;stroke-miterlimit:4;stroke-dasharray:none;stroke-opacity:1;filter:url(#filter6189-6)"
       id="path4687-5"
       cx="62.402035"
       cy="127.45177"
       r="40.933952"
       transform="matrix(1.9114255,0,0,1.4230453,-13.048133,11.855273)" />
  </g>
</svg>
